<svg id="Capa_1" enable-background="new 0 0 512 512" height="512" viewBox="0 0 512 512" width="512" xmlns="http://www.w3.org/2000/svg"><path d="m119.726 135.758h272.548v240.484h-272.548z" fill="#5d5360"/><path d="m392.274 376.242h-272.548v-24.673h45.461l1.688-8.694h36.125l2.25 8.694h187.024z" fill="#4b3f4e"/><path d="m39.565 376.242h80.161v-240.484h-80.161c-17.709 0-32.065 14.356-32.065 32.065v176.355c0 17.708 14.356 32.064 32.065 32.064z" fill="#a4ccff"/><path d="m472.435 135.758h-80.161v240.484h80.161c17.709 0 32.065-14.356 32.065-32.065v-176.354c0-17.709-14.356-32.065-32.065-32.065z" fill="#ff8086"/><circle cx="63.613" cy="199.887" fill="#5d5360" r="24.048"/><path d="m151.79 167.823h208.419v176.355h-208.419z" fill="#b3e59f"/><path d="m75.637 211.911c-13.282 0-24.048-10.767-24.048-24.048 0-3.524.8-6.846 2.162-9.862-8.35 3.771-14.186 12.129-14.186 21.886 0 13.282 10.767 24.048 24.048 24.048 9.757 0 18.116-5.836 21.886-14.186-3.016 1.362-6.338 2.162-9.862 2.162z" fill="#4b3f4e"/><circle cx="448.387" cy="288.065" fill="#5d5360" r="24.048"/><path d="m460.411 300.089c-13.282 0-24.048-10.767-24.048-24.048 0-3.524.8-6.846 2.162-9.862-8.35 3.771-14.186 12.129-14.186 21.886 0 13.282 10.767 24.048 24.048 24.048 9.757 0 18.116-5.836 21.886-14.186-3.015 1.362-6.338 2.162-9.862 2.162z" fill="#4b3f4e"/><path d="m312.113 320.129h-112.226c-13.282 0-24.048-10.767-24.048-24.048v-80.161c0-13.282 10.767-24.048 24.048-24.048h112.226c13.282 0 24.048 10.767 24.048 24.048v80.161c0 13.281-10.767 24.048-24.048 24.048z" fill="#ccf49f"/><path d="m32.111 320.129v-183.237c-13.805 3.575-24.611 16.007-24.611 30.931v176.355c0 17.708 14.355 32.065 32.065 32.065h80.161v-24.048h-55.55c-17.681-.001-32.065-14.385-32.065-32.066z" fill="#8bb3ea"/><path d="m503.367 352.194h-111.093v24.048h80.161c14.924 0 27.355-10.243 30.932-24.048z" fill="#e5646e"/><path d="m472.436 128.258h-432.872c-21.815 0-39.564 17.749-39.564 39.564v176.355c0 21.815 17.749 39.564 39.564 39.564h432.871c21.816 0 39.564-17.749 39.564-39.564v-176.355c.001-21.815-17.748-39.564-39.563-39.564zm-457.436 215.92v-176.356c0-13.545 11.02-24.564 24.564-24.564h72.662v225.484h-72.662c-13.544 0-24.564-11.019-24.564-24.564zm482 0c0 13.545-11.02 24.564-24.564 24.564h-72.662v-184.888c0-4.143-3.358-7.5-7.5-7.5s-7.5 3.357-7.5 7.5v184.888h-257.548v-225.484h257.548v8.535c0 4.143 3.358 7.5 7.5 7.5s7.5-3.357 7.5-7.5v-8.535h72.662c13.545 0 24.564 11.02 24.564 24.564z"/><path d="m63.613 231.436c17.396 0 31.548-14.152 31.548-31.548s-14.152-31.548-31.548-31.548-31.548 14.152-31.548 31.548 14.152 31.548 31.548 31.548zm0-48.097c9.125 0 16.548 7.423 16.548 16.548s-7.423 16.548-16.548 16.548-16.548-7.424-16.548-16.548c-.001-9.125 7.423-16.548 16.548-16.548z"/><path d="m63.613 248.5c-4.142 0-7.5 3.358-7.5 7.5v8.016c0 4.142 3.358 7.5 7.5 7.5s7.5-3.358 7.5-7.5v-8.016c0-4.142-3.358-7.5-7.5-7.5z"/><path d="m63.613 296.597c-4.142 0-7.5 3.358-7.5 7.5v8.016c0 4.142 3.358 7.5 7.5 7.5s7.5-3.358 7.5-7.5v-8.016c0-4.142-3.358-7.5-7.5-7.5z"/><path d="m91.669 276.557h-8.016c-4.142 0-7.5 3.357-7.5 7.5 0 4.142 3.358 7.5 7.5 7.5h8.016c4.142 0 7.5-3.358 7.5-7.5 0-4.143-3.357-7.5-7.5-7.5z"/><path d="m43.573 276.557h-8.016c-4.142 0-7.5 3.357-7.5 7.5 0 4.142 3.358 7.5 7.5 7.5h8.016c4.142 0 7.5-3.358 7.5-7.5 0-4.143-3.358-7.5-7.5-7.5z"/><path d="m448.387 256.516c-17.396 0-31.548 14.153-31.548 31.548s14.152 31.548 31.548 31.548 31.548-14.153 31.548-31.548-14.152-31.548-31.548-31.548zm0 48.097c-9.125 0-16.548-7.423-16.548-16.548s7.423-16.548 16.548-16.548 16.548 7.423 16.548 16.548-7.423 16.548-16.548 16.548z"/><path d="m448.387 239.452c4.142 0 7.5-3.358 7.5-7.5v-8.016c0-4.142-3.358-7.5-7.5-7.5s-7.5 3.358-7.5 7.5v8.016c0 4.142 3.358 7.5 7.5 7.5z"/><path d="m448.387 191.354c4.142 0 7.5-3.357 7.5-7.5v-8.016c0-4.143-3.358-7.5-7.5-7.5s-7.5 3.357-7.5 7.5v8.016c0 4.143 3.358 7.5 7.5 7.5z"/><path d="m428.347 211.396c4.142 0 7.5-3.358 7.5-7.5 0-4.143-3.358-7.5-7.5-7.5h-8.016c-4.142 0-7.5 3.357-7.5 7.5 0 4.142 3.358 7.5 7.5 7.5z"/><path d="m476.443 196.396h-8.016c-4.142 0-7.5 3.357-7.5 7.5 0 4.142 3.358 7.5 7.5 7.5h8.016c4.142 0 7.5-3.358 7.5-7.5 0-4.143-3.358-7.5-7.5-7.5z"/><path d="m360.209 160.322h-208.418c-4.142 0-7.5 3.358-7.5 7.5v176.355c0 4.142 3.358 7.5 7.5 7.5h16.03c4.142 0 7.5-3.358 7.5-7.5 0-4.143-3.358-7.5-7.5-7.5h-8.53v-161.355h193.419v161.355h-152.824c-4.142 0-7.5 3.357-7.5 7.5 0 4.142 3.358 7.5 7.5 7.5h160.323c4.142 0 7.5-3.358 7.5-7.5v-176.355c0-4.141-3.357-7.5-7.5-7.5z"/></svg>