<?xml version="1.0" encoding="iso-8859-1"?>
<!-- Generator: Adobe Illustrator 19.0.0, SVG Export Plug-In . SVG Version: 6.00 Build 0)  -->
<svg version="1.1" id="Capa_1" xmlns="http://www.w3.org/2000/svg" xmlns:xlink="http://www.w3.org/1999/xlink" x="0px" y="0px"
	 viewBox="0 0 512 512" style="enable-background:new 0 0 512 512;" xml:space="preserve">
<g>
	<g>
		<path d="M443.985,280.831c0-1.639-1.328-2.968-2.967-2.969l-14.185-0.009v-53.262c0-6.982-3.867-9.472-7.486-9.472
			c-4.839,0,0.306-2.32-103.92,61.689c-7.71,4.728-6.111,11.55,3.406,11.55l88.849,0.012v5.559c0,1.641,1.33,2.969,2.971,2.969
			c17.979,0,16.181,1.49,16.181-8.535C445.542,288.363,443.985,289.775,443.985,280.831z M407.7,277.836h-73.508l73.508-45.259
			V277.836z"/>
	</g>
</g>
<g>
	<g>
		<path d="M164.474,215.118H71.515c-1.639,0-2.969,1.33-2.969,2.969v4.565c0,1.64,1.33,2.969,2.969,2.969h87.29
			c6.416,0,10.097,4.35,10.097,11.936s-3.68,11.938-10.097,11.938h-70.17c-11.452,0-20.089,9.581-20.089,22.287l0.006,22.146
			c0,1.64,1.33,2.968,2.969,2.968H84.68c1.639,0,2.969-1.329,2.969-2.969v-22.146c0-7.045,3.844-11.78,9.564-11.78h67.262
			c14.509,0,23.522-8.592,23.522-22.424C187.996,223.724,178.983,215.118,164.474,215.118z"/>
	</g>
</g>
<g>
	<g>
		<path d="M319.254,215.972c-0.557-0.557-1.313-0.87-2.102-0.87l-50.739,0.01c-14.509,0-23.522,8.601-23.522,22.445v36.897
			c0,7.58-3.68,11.929-10.097,11.929h-47.616c-1.639,0-2.969,1.33-2.969,2.969v4.575c0,1.641,1.33,2.969,2.969,2.969h53.276
			c14.521,0,23.538-8.596,23.538-22.433v-36.918c0-7.587,3.678-11.938,10.089-11.938h45.073c1.639,0,2.969-1.33,2.969-2.969
			C320.123,217.919,320.356,217.075,319.254,215.972z"/>
	</g>
</g>
<g>
	<g>
		<path d="M492.498,155.046H273.501c-4.143,0-7.5,3.358-7.5,7.5c0,4.142,3.357,7.5,7.5,7.5h218.998c2.482,0,4.5,2.019,4.5,4.5
			v67.063c0,4.142,3.357,7.5,7.5,7.5c4.142,0,7.5-3.358,7.499-7.5v-67.063C511.999,163.795,503.25,155.046,492.498,155.046z"/>
	</g>
</g>
<g>
	<g>
		<path d="M504.5,269.113c-4.143,0-7.5,3.358-7.5,7.5v60.839c0,2.482-2.018,4.5-4.5,4.5H19.501c-2.481,0-4.5-2.018-4.5-4.5V174.548
			c0-2.481,2.019-4.5,4.5-4.5h218.997c4.143,0,7.5-3.358,7.5-7.5c0-4.142-3.357-7.5-7.5-7.5H19.501
			C8.749,155.046,0,163.795,0,174.548v162.905c0,10.754,8.749,19.501,19.501,19.501h472.998c10.753,0,19.501-8.749,19.501-19.501
			v-60.839C512,272.471,508.643,269.113,504.5,269.113z"/>
	</g>
</g>
<g>
</g>
<g>
</g>
<g>
</g>
<g>
</g>
<g>
</g>
<g>
</g>
<g>
</g>
<g>
</g>
<g>
</g>
<g>
</g>
<g>
</g>
<g>
</g>
<g>
</g>
<g>
</g>
<g>
</g>
</svg>
